<?xml version="1.0" encoding="utf-8"?>
<!-- Generator: Adobe Illustrator 23.0.1, SVG Export Plug-In . SVG Version: 6.00 Build 0)  -->
<svg version="1.1" id="Layer_1" xmlns="http://www.w3.org/2000/svg" xmlns:xlink="http://www.w3.org/1999/xlink" x="0px" y="0px"
	 viewBox="0 0 969.7 286.8" style="enable-background:new 0 0 969.7 286.8;" xml:space="preserve">
<style type="text/css">
	.st0{fill:#FFFFFF;}
</style>
<title>iconAsset 4</title>
<g>
	<path class="st0" d="M297.3,187.8c0-0.2,0.2-0.5,0.1-0.7c-3.7-21.3-5.1-42.9-8.1-64.3c-0.8-6.1-0.2-12.4-2.2-18.3
		c0.3-2.2,0.5-4.4-0.3-6.5c0.4-1.8,0.5-3.6-0.6-5.3c0-0.8-0.1-1.6-0.1-2.4c0.4-1.4,0.3-2.7-0.3-4c0.1-0.7,0.1-1.4-0.4-2
		c0.4-0.9,0.4-1.7-0.7-2.2c0.5-6.5-0.8-13-0.2-19.6c1.8-18.7,3-37.5,3.2-56.3c0-1.2,1.1-3.4-1.8-3.1c-15.5,0-30.9,0-46.4,0
		c-7.4,0-14.7,0-22.1,0c-1.3,0-2.5-0.1-3.8-0.1C156,3,98.3,3,40.6,3C29.1,3,17.6,3,6,3C4.1,3,3,3.2,3,5.6c0.4,17.5,0.4,35,1,52.5
		c0.5,14.4,2,28.8,2.5,43.3c0.3,10.3,5.1,19.1,8.2,28.5c0,1.5,0.5,3,0.8,4.4c2.5,9.9,6.3,19.6,6.6,29.9c0.5,14.7-0.8,29.4-1.3,44.1
		c-0.5,14.8-3.9,29.4-5.1,44.1c-0.6,7.4,4.5,13.6,11.9,14.2c6.7,0.5,13.4,0.8,19.8,3.3c4.7,1.9,8.3,0.2,11.6-2.9
		c1.2-1.1,2.2-2.2,3.9-1.8c3.2,0.8,6.3-0.1,9.3-0.9c2.1-0.5,4.2-0.9,6.2,0.6c3.9,2.9,8.5,4.4,12.8,6.5c4.6,2.2,9.2,3.2,14.3,2.7
		c4.1-0.4,8.2,0.1,12.3,1.4c6.1,2,12.2,3.6,18.7,3.8c7.3,0.2,14.5,1.6,21.6,3.5c10.9,2.9,21.7,3.2,32.3-1.2
		c18.1-7.5,30.9-22,45.4-34.2c4.9-2.7,7.8-7.6,11.8-11.3c0.7,0.1,1-0.2,1.1-0.8c0.5,0,0.9-0.2,0.8-0.9l0.1,0.1
		c1.9-0.3,2.5-2,3.7-3.1c1.2-1.2,2.3-2.4,4-2.8c5.3-1.3,10.6-2.7,16-3.9c2.6-0.6,5-1.8,7.6-2.3c2.1-0.4,5-1.6,5.7,1.7
		c0.5,2.2-0.8,4,0.5,5.7c2.2,2.8,1.9,5.5-0.1,8.2c-1.7,2.2-3.3,4.5-5.1,7.1c5.5-0.8,13.6-6.1,13.5-10.6c-0.3-10,1.8-19.7,2.6-29.5
		C298.5,199.3,299.2,193.5,297.3,187.8z M195.2,105.8L195.2,105.8L195.2,105.8L195.2,105.8z M193,104.2c0-0.1-0.1-0.2-0.1-0.3
		C192.9,104,193,104.1,193,104.2z M186.6,101.6c-0.5-0.4-1.1-0.7-1.7-0.8C185.5,100.9,186,101.2,186.6,101.6z M125.4,99.7
		c-0.8,0-1.7,0-2.1,0.8C123.7,99.6,124.6,99.6,125.4,99.7z M123.1,100.9C123.1,100.9,123.1,101,123.1,100.9L123.1,100.9
		C123.1,101,123.1,100.9,123.1,100.9z M122.6,103.1L122.6,103.1L122.6,103.1z M122.1,125.9c0.2-0.2,0.2-0.4,0.2-0.5
		C122.3,125.6,122.2,125.7,122.1,125.9z M122.2,125.3C122.2,125.3,122.2,125.4,122.2,125.3C122.2,125.3,122.2,125.3,122.2,125.3z
		 M116.8,113C116.8,113,116.8,112.9,116.8,113C116.8,112.9,116.8,113,116.8,113z M106.9,103.6c-0.4-0.2-0.8-0.5-1.1-0.7
		C106.2,103.2,106.6,103.4,106.9,103.6z M104.5,102.1c-0.7-0.4-1.5-0.8-2.2-1.1C103,101.3,103.8,101.7,104.5,102.1z M102.1,101
		c-0.2,0-0.3-0.1-0.5-0.1C101.8,100.9,101.9,101,102.1,101z M35.6,117.8c-0.2,1.1-0.2,2.1,0.6,3.1l0,0
		C35.4,119.9,35.4,118.9,35.6,117.8z M83.8,197.4c0,2.7-0.9,3.5-3.5,3.4c-13.6-0.1-27.1-0.1-40.7,0c-2.4,0-3.5-0.6-3.4-3.2
		c0.2-4.7,0.2-9.4,0-14.1c-0.1-2.7,1.1-3.7,3.6-3.5c1.3,0.1,2.5,0,3.8,0.1c2.2,0.1,2.9-0.9,2.9-3c0-17.9-0.1-35.7,0-53.6
		c0-2.1-1.1-2.5-2.9-2.5c-2.5,0-5.1-0.1-7.6-0.2c0.1-1.4,0.4-2.8-0.4-4.2c0.1-0.6,0.1-1.2,0.2-1.9c0.1-3.5,0.3-7.1,0.2-10.6
		c-0.1-2.9,1.1-3.7,3.8-3.7c18.5,0.2,36.9,0.2,55.4,0.3c0.4,0,0.8-0.1,1.1-0.1l0,0c0.6,0.1,1.1,0.1,1.7,0.2
		c5.5,2.3,11.1,4.5,15.7,8.6l0.1,0.1c0,0.5,0.2,0.7,0.6,0.6l0.1,0.1c0,0.5,0.1,1,0.8,0.8c0-0.2-0.1-0.4-0.2-0.6
		c0.1,0.1,0.2,0.4,0.2,0.6c0.3,0.5,0.7,1,1,1.4c-0.2,0.4,0,0.6,0.4,0.5v0.2l0.2,0.1c-0.1,0.4,0,0.7,0.4,0.8c1.1,2.8,2.3,5.6,3.4,8.3
		l-0.1,0.2l0.2,0.2c-0.1,0.7,0.1,1.3,0.6,1.8c-0.3,0.5-0.3,0.9,0.2,1.2c-0.1,6.4,0.5,12.8-2,19.1c-4.5,11.3-13.1,17-24.7,18.7
		c-5.9,0.8-11.9,1.2-17.8,0.7c-3.7-0.3-4.7,1.1-4.3,4.5c0.3,2.8,0,5.6,0.1,8.4c0.1,3.2,0.4,3.3,3.9,2.3c-1.4-1.1-1.4-2.5-1.1-4
		c-0.3,1.5-0.4,2.8,1.1,4c2,1,4.1,0.2,6.1,0.8H83c0.3,0.5,0.5,0.9,0.8,1.4C83.3,187,83.8,192.2,83.8,197.4z M208.7,179
		c-1.6,11.7-10.6,18.3-19.6,20.5c-4.2,1-8.5,1.3-12.8,1.3c-17.6-0.1-35.2,0-52.8,0v-0.2l-0.2,0.1l0.2,0.1l0,0l-0.2-0.1
		c0-6.7,0-13.4-0.1-20h0.3l-0.1-0.3l-0.2,0.3l0,0l0.2-0.3c0.6,0,1.3-0.1,1.9-0.1c7.8-0.3,7.8-0.3,7.8-8.3c0-14.7,0-29.4,0-44.1
		c0-1.4-0.2-2.8-0.2-4.2c0.7-0.5,0.6-1,0-1.4c-1.8-2.3-4.4-1.1-6.5-1.1c-2.6,0-3.2-0.9-3.2-3.3c0.1-3.1-0.1-6.2-0.2-9.4l0.2-0.2
		l-0.2-0.2c0.4-1.6,0.3-3.2,0-4.8l0.2-0.2l-0.2-0.2c0.1-0.6,0.2-1.2,0.3-1.8c5-0.7,10.1-0.3,15.1-0.3c13.7-0.1,27.4-0.2,41.1-0.3
		c1.3,0.4,2.7,0.7,4.1,0.5c1,1.1,2.2,1.3,3.5,1c1.8,0.7,3.7,1.5,5.5,2.2l0,0l0.2,0.3l0.3-0.1c0.5,0.8,1.2,1.3,2.2,1.5h-0.1v0.1
		c0,0,0,0,0-0.1c0.7,0.5,1.4,1,2.1,1.5c0,0.6,0.4,0.8,1,0.8c0-0.3-0.1-0.5-0.3-0.6c0.2,0.1,0.3,0.3,0.3,0.6c1.3,1.6,2.6,3.1,3.9,4.7
		c-0.1,0.4,0.1,0.7,0.6,0.8c0-0.1,0-0.2,0-0.3c0,0.1,0,0.2,0,0.3c1.5,4.2,2.7,8.3,2.8,12.8c0.2,9.4-4.2,15.5-12.4,19.5
		c-1.2,0.6-2.5,1.2-4.2,2c3.3,1.1,6.1,2.1,8.9,3l0,0c4.9,3.4,8.8,7.8,11,13.5C208.8,169.3,209.3,174,208.7,179z M132.5,122.9
		c0-0.1,0.1-0.2,0.1-0.3C132.6,122.6,132.5,122.8,132.5,122.9z M258.7,197.9c0,2-0.5,3-2.7,2.9c-13.9-0.1-27.9-0.1-41.8,0
		c-2.2,0-2.9-0.8-2.9-2.9c0.1-4.8,0.1-9.6,0-14.4c-0.1-2.6,1-3.5,3.6-3.4c8.2,0.4,6.8,0.3,6.9-6.8c0-7.7,0-15.5,0-23.2
		c0,0,0,0-0.1,0c0-8.5-0.1-17,0.1-25.5c0.1-2.6-0.6-3.5-3.3-3.6c-7.1,0-7.1-0.1-7.1-7.2c0-3.4,0.1-6.8,0-10.3c-0.1-2.1,0.7-3,2.8-3
		c14.1,0,28.1,0.1,42.2,0.1c1.8,0,2.5,0.7,2.4,2.5c-0.1,5.2-0.1,10.4,0,15.6c0,1.8-0.8,2.3-2.5,2.4c-2.6,0.3-6.2-1.6-7.7,1.1
		c-1.2,2-0.4,5.2-0.4,7.8c0,15.3,0.1,30.7-0.1,46c0,3.4,1,4.7,4.3,4.1c1.1-0.2,2.3,0,3.4,0c2.3-0.1,3.1,0.9,3,3.2
		C258.6,188.2,258.6,193.1,258.7,197.9z"/>
	<path class="st0" d="M174.5,158.1c-4.2-1.5-8.5-1-12.8-1c-1.9,0-1.9,1.3-1.9,2.6c0,2.9,0,5.8,0,8.7c0,3.2,0,6.3,0,9.5
		c0,1.7,0.6,2.5,2.5,2.5c3.6,0,7.1-0.3,10.6-0.9c4.9-0.8,8.1-4.3,8.5-8.8C181.9,164.2,179.6,159.9,174.5,158.1z"/>
	<path class="st0" d="M159.9,137.7c0,1.3,0.3,2.2,1.9,2.2c4-0.1,8.1,0.1,12-1.1c2.7-0.8,4.6-2.7,5.2-5.5c1.5-6.6-1.8-11.2-8.5-12.1
		c-10.4-1.4-10.7-1.1-10.6,9.3C159.9,132.9,159.9,135.3,159.9,137.7z"/>
	<path class="st0" d="M75.6,145.2c3-0.2,6.1,0,9.1-0.4c6-0.6,10.1-4.9,10.6-10.6c0.5-6.2-2.5-10.2-8.6-12.1
		c-3.7-1.2-7.5-0.7-11.3-0.9c-2-0.1-2.3,1.1-2.3,2.7c0,3.2,0,6.3,0,9.5c0,3,0.1,6.1,0,9.1C73,144.3,73.4,145.3,75.6,145.2z"/>
</g>
<g>
	<path class="st0" d="M361.5,107c2.5,1.1,4.4,2.2,5.4,3.3c1,1,1.4,2.1,1.4,3.3c0,1.2-0.4,2.1-1.2,2.9c-0.8,0.8-1.8,1.2-3,1.2
		c-1.9,0-3.3-0.6-4.4-1.9s-1.7-3.2-1.9-5.7v-0.7h-9.3v17.1h9.3v-2.7c2.2,2.1,5.1,3.2,8.5,3.2c4.3,0,7.7-1.3,10.3-3.9
		c2.5-2.6,3.8-6.1,3.8-10.5c0-3.7-1.1-6.8-3.3-9.3c-2.1-2.4-5.3-4.6-9.4-6.3l-1.8-0.8c-1.8-0.8-3.1-1.4-4-1.9c-0.8-0.4-1.5-1-2-1.6
		s-0.7-1.2-0.7-2s0.3-1.5,1.1-2.1c0.8-0.6,1.7-0.9,2.7-0.9c1.6,0,2.8,0.5,3.8,1.5s1.7,2.5,2,4.6l0.1,0.7h9.2V79.2h-9.3v2.5
		c-0.7-0.7-1.6-1.3-2.5-1.8c-1.6-0.8-3.3-1.2-5.2-1.2c-2.4,0-4.6,0.6-6.6,1.8c-2,1.2-3.6,2.8-4.7,4.8s-1.7,4.3-1.7,6.8
		c0,3.2,1.1,6,3.2,8.4C353.5,102.8,356.9,105,361.5,107z"/>
	<path class="st0" d="M408,117.2h-6.4v-7.4h4c6.7,0,11.7-1.2,15-3.7s5-6.4,5-11.6s-1.7-9.1-5.1-11.6c-3.3-2.5-8.4-3.7-15.1-3.7h-23
		v9.3h5.8v28.7h-5.8v9.3H408V117.2z M410.8,98c-0.4,0.8-1.2,1.5-2.4,1.9c-1.3,0.5-3.2,0.7-5.6,0.7h-1.1V88.5h1.1
		c1.8,0,3.5,0.1,4.9,0.4c1.3,0.3,2.2,0.8,2.9,1.7c0.7,0.9,1,2.2,1,3.9C411.4,96,411.2,97.2,410.8,98z"/>
	<path class="st0" d="M441.4,124c4,2,8.5,3,13.5,3c5.1,0,9.7-1,13.6-3c4-2,7.1-4.9,9.3-8.6c2.2-3.7,3.3-8,3.3-12.7s-1.1-9-3.3-12.6
		c-2.2-3.7-5.3-6.6-9.2-8.6c-3.9-2-8.5-3-13.6-3s-9.7,1-13.7,3s-7.1,4.9-9.3,8.6c-2.2,3.6-3.3,7.9-3.3,12.7c0,4.8,1.1,9.1,3.4,12.7
		C434.2,119.1,437.4,122,441.4,124z M448.6,90.2c1.8-1.2,3.9-1.9,6.3-1.9s4.5,0.6,6.3,1.9s3.2,3,4.1,5.1c1,2.2,1.5,4.6,1.5,7.3
		c0,2.8-0.5,5.3-1.5,7.6c-1,2.2-2.3,3.9-4.2,5.1c-1.8,1.2-3.9,1.9-6.3,1.9c-2.3,0-4.4-0.6-6.2-1.9c-1.8-1.2-3.2-3-4.2-5.2
		s-1.5-4.7-1.5-7.5c0-2.7,0.5-5.1,1.5-7.3C445.4,93.2,446.8,91.5,448.6,90.2z"/>
	<path class="st0" d="M508.3,117.2h-5.7v-10.7h4l10.3,20h15.2v-9.3h-6.2l-6.8-12.7c2.4-1.2,4.3-2.7,5.5-4.6c1.4-2,2.1-4.5,2.1-7.5
		c0-4.3-1.5-7.6-4.6-9.9c-3-2.2-7.1-3.4-12.4-3.4h-26.9v9.3h6.3v28.7h-6.3v9.3h25.5V117.2z M507.2,88.5c1.7,0,3.1,0.4,4.1,1.1
		c0.9,0.7,1.4,1.8,1.4,3.3c0,2-0.7,4.6-6.5,4.6h-3.6v-9.1L507.2,88.5L507.2,88.5z"/>
	<polygon class="st0" points="539.8,88.5 545.2,88.5 545.2,117.2 538.3,117.2 538.3,126.5 565.5,126.5 565.5,117.2 558.6,117.2 
		558.6,88.5 564.2,88.5 564.2,99.1 573.5,99.1 573.5,79.2 530.5,79.2 530.5,99.1 539.8,99.1 	"/>
	<path class="st0" d="M589.9,107c2.5,1.1,4.4,2.2,5.4,3.3c1,1,1.4,2.1,1.4,3.3c0,1.2-0.4,2.1-1.2,2.9s-1.8,1.2-3,1.2
		c-1.9,0-3.3-0.6-4.4-1.9c-1.1-1.3-1.7-3.2-1.9-5.7v-0.7H577v17.1h9.3v-2.7c2.2,2.1,5.1,3.2,8.5,3.2c4.3,0,7.7-1.3,10.3-3.9
		c2.5-2.6,3.8-6.1,3.8-10.5c0-3.7-1.1-6.8-3.3-9.3c-2.1-2.4-5.3-4.6-9.4-6.3l-1.8-0.8c-1.8-0.8-3.1-1.4-4-1.9c-0.8-0.4-1.5-1-2-1.6
		s-0.7-1.2-0.7-2s0.3-1.5,1.1-2.1s1.7-0.9,2.7-0.9c1.6,0,2.8,0.5,3.8,1.5s1.7,2.5,2,4.6l0.1,0.7h9.2V79.2h-9.3v2.5
		c-0.7-0.7-1.6-1.3-2.5-1.8c-1.6-0.8-3.3-1.2-5.2-1.2c-2.4,0-4.6,0.6-6.6,1.8c-2,1.2-3.6,2.8-4.7,4.8c-1.1,2-1.7,4.3-1.7,6.8
		c0,3.2,1.1,6,3.2,8.4C581.9,102.8,585.3,105,589.9,107z"/>
	<path class="st0" d="M637.2,125.2c2.6,1.4,5.6,2.1,9.1,2.1c5.4,0,10.4-1.9,14.8-5.5l3.8,4.7h14.7v-8.9h-7.8l-3.2-3.9
		c2-2.3,3.7-5,5-7.9h5.9v-8.9h-12.1l-0.2,0.5c-1.1,2.6-2.8,5.5-5,8.6l-5.3-6.8c5-2.8,7.6-6.3,7.6-10.6c0-2-0.6-3.8-1.7-5.3
		c-1.1-1.5-2.7-2.7-4.7-3.6c-2-0.8-4.2-1.2-6.6-1.2c-3.7,0-6.8,0.9-9.4,2.8c-2.6,1.9-3.9,4.6-3.9,8.1c0,2.7,1.1,5.4,3.2,8.1
		c-4.2,2-7.2,4.3-9.1,6.6c-2.1,2.5-3.1,5.4-3.1,8.4c0,2.6,0.7,5.1,2,7.4C632.7,122,634.7,123.8,637.2,125.2z M649,88.1
		c0-0.6,0.3-1,0.8-1.4c0.6-0.5,1.3-0.7,2.1-0.7c0.9,0,1.6,0.3,2.2,0.8c0.6,0.5,0.8,1.1,0.8,1.8c0,1.3-1.1,2.5-3.4,3.7
		C649.2,89.3,649,88.3,649,88.1z M648.3,117.1c-1.4,0-2.7-0.3-3.7-0.9c-1.1-0.6-1.9-1.4-2.4-2.3c-0.6-0.9-0.9-1.9-0.9-3
		c0-1.5,0.5-2.8,1.6-4c1-1.1,2.5-2,4.2-2.8l7.9,10C652.8,116.1,650.5,117.1,648.3,117.1z"/>
	<polygon class="st0" points="347.9,163.2 353.4,163.2 353.4,191.9 347.9,191.9 347.9,201.2 389.8,201.2 389.8,185.1 379.5,185.1 
		379.5,191.9 366.8,191.9 366.8,181.4 378.3,181.4 378.3,172.2 366.8,172.2 366.8,163.2 379.5,163.2 379.5,169.9 389.8,169.9 
		389.8,153.9 347.9,153.9 	"/>
	<polygon class="st0" points="422.7,163.2 428.6,163.2 428.6,180.5 412.9,153.9 392.4,153.9 392.4,163.2 398.6,163.2 398.6,191.9 
		392.4,191.9 392.4,201.2 414,201.2 414,191.9 408.3,191.9 408.3,169.6 426.7,201.1 426.9,201.5 438.3,201.5 438.3,163.2 
		444.6,163.2 444.6,153.9 422.7,153.9 	"/>
	<polygon class="st0" points="446.2,173.8 455.5,173.8 455.5,163.2 460.9,163.2 460.9,191.9 454,191.9 454,201.2 481.2,201.2 
		481.2,191.9 474.3,191.9 474.3,163.2 479.9,163.2 479.9,173.8 489.2,173.8 489.2,153.9 446.2,153.9 	"/>
	<polygon class="st0" points="492,163.2 497.5,163.2 497.5,191.9 492,191.9 492,201.2 533.9,201.2 533.9,185.1 523.6,185.1 
		523.6,191.9 510.9,191.9 510.9,181.4 522.4,181.4 522.4,172.2 510.9,172.2 510.9,163.2 523.6,163.2 523.6,169.9 533.9,169.9 
		533.9,153.9 492,153.9 	"/>
	<path class="st0" d="M572.6,179.2c2.4-1.2,4.3-2.7,5.5-4.6c1.4-2,2.1-4.5,2.1-7.5c0-4.3-1.5-7.6-4.6-9.9c-3-2.2-7.1-3.4-12.4-3.4
		h-26.9v9.3h6.3v28.7h-6.3v9.3h25.5v-9.3h-5.7v-10.7h4l10.3,20h15.2v-9.3h-6.2L572.6,179.2z M556.1,163.2h4.7c1.7,0,3.1,0.4,4.1,1.1
		c0.9,0.7,1.4,1.8,1.4,3.3c0,2-0.7,4.7-6.5,4.7h-3.6v-9.1H556.1z"/>
	<polygon class="st0" points="612.2,163.2 617.8,163.2 617.8,173.8 627,173.8 627,153.9 584,153.9 584,173.8 593.3,173.8 
		593.3,163.2 598.8,163.2 598.8,191.9 591.8,191.9 591.8,201.2 619,201.2 619,191.9 612.2,191.9 	"/>
	<path class="st0" d="M671.1,163.2h6.9v28.7h-6.3h-0.6h-5l-9.1-28.7h5.9v-9.3h-31.5v9.3h5.9l-8.5,28.7H623v9.3h21.8v-9.3H639l2-6.3
		h10.8l1.8,6.3H648v9.3h23.4h0.6h26.8v-9.3h-7.1v-28.7h7.1v-9.3h-27.4v9.3H671.1z M649.2,177.3h-5.9l3.1-10.3L649.2,177.3z"/>
	<polygon class="st0" points="729.8,163.2 735.7,163.2 735.7,180.5 720.2,154.2 720,153.9 699.6,153.9 699.6,163.2 705.7,163.2 
		705.7,191.9 699.6,191.9 699.6,201.2 721.1,201.2 721.1,191.9 715.4,191.9 715.4,169.6 734,201.5 745.4,201.5 745.4,163.2 
		751.7,163.2 751.7,153.9 729.8,153.9 	"/>
	<polygon class="st0" points="786.8,179.3 777.3,153.9 753,153.9 753,163.2 759,163.2 759,191.9 753,191.9 753,201.2 773.8,201.2 
		773.8,191.9 768,191.9 768,163.8 782.1,201.2 788.1,201.2 802,163.8 802,191.9 796.5,191.9 796.5,201.2 821.1,201.2 821.1,191.9 
		815.2,191.9 815.2,163.2 821.1,163.2 821.1,153.9 796.4,153.9 	"/>
	<polygon class="st0" points="823.7,163.2 829.2,163.2 829.2,191.9 823.7,191.9 823.7,201.2 865.6,201.2 865.6,185.1 855.3,185.1 
		855.3,191.9 842.6,191.9 842.6,181.4 854.1,181.4 854.1,172.2 842.6,172.2 842.6,163.2 855.3,163.2 855.3,169.9 865.6,169.9 
		865.6,153.9 823.7,153.9 	"/>
	<polygon class="st0" points="898.5,163.2 904.4,163.2 904.4,180.5 888.9,154.2 888.7,153.9 868.3,153.9 868.3,163.2 874.4,163.2 
		874.4,191.9 868.3,191.9 868.3,201.2 889.8,201.2 889.8,191.9 884.1,191.9 884.1,169.6 902.7,201.5 914.1,201.5 914.1,163.2 
		920.5,163.2 920.5,153.9 898.5,153.9 	"/>
	<polygon class="st0" points="965,173.8 965,153.9 922,153.9 922,173.8 931.3,173.8 931.3,163.2 936.8,163.2 936.8,191.9 
		929.8,191.9 929.8,201.2 957,201.2 957,191.9 950.2,191.9 950.2,163.2 955.7,163.2 955.7,173.8 	"/>
</g>
</svg>
