<?xml version="1.0" encoding="utf-8"?>
<!-- Generator: Adobe Illustrator 23.0.1, SVG Export Plug-In . SVG Version: 6.00 Build 0)  -->
<svg version="1.1" id="Layer_1" xmlns="http://www.w3.org/2000/svg" xmlns:xlink="http://www.w3.org/1999/xlink" x="0px" y="0px"
	 viewBox="0 0 1027.3 246.9" style="enable-background:new 0 0 1027.3 246.9;" xml:space="preserve">
<style type="text/css">
	.st0{fill:#FFFFFF;}
</style>
<title>iconAsset 4</title>
<g>
	<path class="st0" d="M280.9,121.4l-10-22.9c-1-2.4-3.4-4-6-4l-59.2,0.1c-3.8,0-6.8-3.2-6.6-7L213,12c0.5-6.7-8.3-9.7-12-4.1
		l-76.7,114.2c-1.2,1.9-1.5,4.2-0.6,6.3l10,22.9c1,2.4,3.4,4,6,4l59.2-0.1c3.8,0,6.8,3.2,6.6,7l-13.9,75.6c-0.5,6.7,8.3,9.7,12,4.1
		l76.7-114.2C281.5,125.9,281.8,123.5,280.9,121.4z"/>
	<g>
		<g>
			<path class="st0" d="M357.7,134.1l-0.2-72.4l37.8-0.1l0,9.5l-26.2,0.1l0,18.2l19.2,0l0,9.6l-19.2,0l0.1,25.6l35.5-0.1l-2.3,9.6
				L357.7,134.1z"/>
			<path class="st0" d="M423,134.9l-25.2-49.7l11.9,0l13.8,30.1l13.7-30.2l11.9,0l-25,49.8L423,134.9z"/>
			<path class="st0" d="M460.1,111.7c0,9.2,6.8,13.9,15.2,13.9c6.8,0,10.5-2.9,12.6-4.7l5.4,7.9c-6.3,4.5-11.3,5.9-18,5.9
				c-16.1,0-25.7-9.8-25.7-25.2c0-15.2,10-25.2,23.3-25.3c12.3,0,22,8.2,22,22.5c0,2.2-0.2,4.9-0.2,4.9L460.1,111.7z M460.7,103.4
				l24.5-0.1c-0.7-7-5.9-10.5-12.1-10.5C467.4,92.9,462.5,96.4,460.7,103.4z"/>
			<path class="st0" d="M526.2,93.7c-11.1,0-12.6,8.7-12.6,18.9l0,21.1l-10.5,0L503,85l10.5,0l0,7.4c1.6-5.1,6.9-8.2,12.4-8.2
				c1.1,0,1.8,0,2.8,0.1c-0.7,3.4-0.9,6.1-1.7,9.5L526.2,93.7z"/>
			<path class="st0" d="M565.4,74.6l0.1,59.1l-17.1,0l-0.1-59.1l-17.6,0l3.1-13.3l47.8-0.1l0,13.3L565.4,74.6z"/>
			<path class="st0" d="M622,133.6l0-22.7c0-9.2-0.7-14.9-8-14.9c-7.4,0-9.3,7-9.3,17.2l0,20.4l-14.9,0l-0.2-70.4l14.9-3.1l0.1,32.6
				c1.2-2,5.9-8.9,14.8-8.9c14.5,0,17.7,9,17.7,28.8l0,20.9L622,133.6z"/>
			<path class="st0" d="M660.6,84.6l0.1,26.7c0,7.1,1.9,11,7.7,11c6,0,9.2-5.5,9.2-14.7l0-23l14.9,0l0.1,48.9l-14.9,0l0-7.9
				c-1.2,2-5.4,8.8-14.5,8.8c-13.3,0-17.7-7.8-17.7-25.4l-0.1-24.3L660.6,84.6z"/>
			<path class="st0" d="M737,133.3l-0.1-26.6c0-7.1-2.2-11-8-11c-6,0-9.3,5.6-9.3,14.7l0,22.9l-14.9,0l-0.1-48.9l14.9,0l0,8.1
				c1.2-2,5.7-8.9,14.6-8.9c11.9,0,17.9,7,17.9,22l0.1,27.7L737,133.3z"/>
			<path class="st0" d="M756.9,109.7c0-14.2,8.5-26.1,23.2-26.1c6.3,0,11.7,2.5,11.7,2.5l-0.1-23.2l14.9-3.2c0,0,0.1,24.1,0.2,73.5
				l-14.8,0l0-8.5c-1.3,2.7-5.4,9.4-14.3,9.4C764.8,134.1,756.9,124.3,756.9,109.7z M781.5,121.8c6.3,0,10.5-6.1,10.5-17.9l0-6
				c-1.3-0.8-4.2-2.7-8.8-2.7c-7.4,0-11.2,6.6-11.2,14.2C772,116.3,774.8,121.8,781.5,121.8z"/>
			<path class="st0" d="M826.8,112.2c0.6,6.8,6.2,9.9,13,9.9c5.5,0,9.1-1.7,12.7-4.3l6.4,10.3c-7.1,4.8-13.7,5.8-19.6,5.8
				c-16.7,0-27.1-9.8-27.2-25.2c0-15.2,10.5-25.4,24.5-25.4c12.8,0,23.1,8.6,23.2,23.2c0,2.9-0.3,5.7-0.3,5.7L826.8,112.2z
				 M827,101.8l20,0c-0.8-5.3-4.5-8.4-9.8-8.4C832,93.4,828.4,96.7,827,101.8z"/>
			<path class="st0" d="M882.1,117.4l0,15.6l-14.8,0l-0.1-48.9l14.8,0l0,8.1c2.2-6.7,9.8-9.6,16.2-8.9c-0.3,1.4-1.7,12.4-2,13.7
				C885.5,96.6,882.1,104.2,882.1,117.4z"/>
		</g>
		<g>
			<path class="st0" d="M360.2,152.9h7.3l7.1,15.6l7.1-15.6h7.2v26.1H383l0-17l-6.3,14.4h-4.3l-6.3-14.4v17h-5.9V152.9z"/>
			<path class="st0" d="M402.7,153h20.4v5.2h-13.8v5.2h12.5v5.2h-12.5v5.3h14.2v5.2h-20.8V153z"/>
			<path class="st0" d="M436.4,153h11.2c8.2,0,13.9,5.3,13.9,13.1c0,7.7-5.7,13.1-14.1,13.1h-11V153z M447.8,173.8
				c4.1,0,7-3.1,7-7.7c0-4.6-3.1-7.8-7.3-7.8h-4.4v15.5H447.8z"/>
			<path class="st0" d="M473.6,153h6.6v26.1h-6.6V153z"/>
			<path class="st0" d="M502.5,153h6.8l11,26.1h-7.1l-1.9-4.8H500l-1.9,4.8h-6.8L502.5,153z M509.4,169.2l-3.7-9.7l-3.8,9.7H509.4z"
				/>
		</g>
	</g>
</g>
</svg>
