<svg xmlns="http://www.w3.org/2000/svg" width="1058.5" height="1276.6" viewBox="0 0 1058.5 1276.6"><title>Asset 2</title><g id="Layer_2" data-name="Layer 2"><g id="Layer_1-2" data-name="Layer 1"><path d="M1026.6,1301.4c5.2,20.7-34.9,55.5-47.8,67.2A187.2,187.2,0,0,1,904,1406c-56.9,15.5-99.5-5.2-135.6-51.6-74.9-96.9-62-211.8-31-320.2,0,0,1.3-25.9,6.5-29.7a144.5,144.5,0,0,1-2.6,18l6.4-23.2c0,1.3-1.3,1.3-2.6,1.3-3.8-15.5,11.7-46.5,16.8-60.7l28.4-64.5c16.8-37.5,31-73.6,45.2-112.4,14.2-42.6,37.5-82.6,56.8-122.6,3.9-6.5,31-68.5,36.2-67.2,0,0-5.2,15.5-3.9,16.8,9-21.9,16.8-43.9,24.5-67.1l-9,18.1c-1.3-16.8,28.4-59.4,1.3-65.9-22-5.2-54.2,28.4-68.4,41.3-58.1,53-103.3,114.9-148.5,179.5-22,31-41.3,62-68.4,89.1-16.8,15.5-27.2,43.9-41.4,64.5-23.2,37.5-43.9,74.9-65.8,111.1-15.5,27.1-37.4,52.9-47.8,82.6-12.9,36.1-27.1,68.4-67.1,31s-38.7-86.5-28.4-135.6C434,792.7,511.5,650.7,586.3,524.2,618.6,469.9,647,409.3,669,349.9c3.8-10.4,14.2-29.7,3.8-33.6-12.9-5.2-43.9,19.4-52.9,25.8C560.5,386,515.3,445.4,470.1,503.5S383.6,624.9,342.3,688.1c-43.9,65.9-85.2,133-126.5,200.2-19.4,32.2-41.3,63.2-54.2,98.1-14.2,32.3-25.9,65.8-38.8,99.4-7.7,20.7-14.2,52.9-27.1,71-16.8,23.3-50.3,22-72.3,3.9-19.3-15.5-24.5-40-23.2-64.6,3.9-71,34.8-147.2,62-211.7s55.5-126.5,80-192.4C191.3,557.7,263.6,428.6,301,289.2v12.9l7.8-47.8c5.1-31,3.8-61.9-34.9-52.9-28.4,7.7-51.7,28.4-71,50.3-46.5,49.1-81.4,112.4-104.6,175.6-5.2,12.9-9,33.6-10.3,41.4-1.3,10.3,2.6,19.3-6.5,28.4C66,510,49.2,499.6,38.9,485.4c-20.6-30.9-18.1-80-9-114.9,9-31,31-52.9,43.9-81.3,3.8-9,2.6-19.4,10.3-29.7L97,241.4c14.2-15.5,28.4-29.7,43.9-43.9,29.7-24.5,62-42.6,99.4-54.2,41.3-12.9,86.5-15.5,118.8,19.4,20.7,21.9,32.3,61.9,38.7,90.3,9.1,40.1-3.8,90.4-15.5,127.9S359.1,457,346.2,494.5s-25.8,71-38.7,107.1c-10.4,28.4-15.5,55.6-24.6,84,67.2-104.6,139.5-213.1,226-304.7,42.6-45.2,144.6-195,215.6-108.5,32.3,40,43.9,100.7,24.5,148.5-18.1,43.9-50.3,82.6-69.7,125.2C628.9,661,569.6,773.4,533.4,894.7c46.5-80,94.3-160.1,148.5-236.3-12.9,18.1-28.4,36.2-40,55.6,23.2-36.2,43.9-67.2,49-73.6,45.2-62,93-122.7,151.1-174.3,31-28.4,72.3-62,117.5-62,52.9-1.3,86.5,46.5,95.5,94.3,20.7,112.3-55.5,216.9-100.7,311.1,2.6-5.2,6.5-9,9-9s-32.2,83.9-36.1,91.6c-15.5,36.2-29.7,72.3-45.2,107.2-27.1,67.1-54.2,135.6-69.7,205.3-7.8,33.6-22,90.4,15.5,111s95.5,12.9,131.7,0C972.4,1311.7,1022.7,1280.8,1026.6,1301.4ZM151.2,702.3c23.3-58.1,47.8-114.9,74.9-170.4,28.4-58.1,47.8-118.8,63.3-179.4-6.5,20.6-15.5,41.3-23.3,59.3-18,42.7-32.2,87.8-50.3,130.4C192.6,595.2,171.9,648.1,151.2,702.3Zm408,140.8s36.2-55.5,69.7-109.8C610.9,764.3,563.1,844.4,559.2,843.1Zm72.3-113.6-2.6,3.8C630.2,732,631.5,730.7,631.5,729.5Zm5.2-6.5v-1.3l-5.2,7.8Zm96.8,365.4c-3.8,5.2-3.8,7.7,0,9C736.1,1092.3,736.1,1089.7,733.5,1088.4Zm10.4-32.3c12.9-38.7,29.7-77.5,46.4-114.9,20.7-43.9,46.5-95.5,55.6-142,3.8-7.8,3.8-11.6,0-12.9-13,15.5-18.1,50.3-25.9,69.7-10.3,24.5-20.6,49-32.2,72.3C767.1,970.9,756.8,1013.5,743.9,1056.1Zm24.5-507.4,1.3-2.6,1.3-1.3a1.3,1.3,0,0,1-1.3,1.3l1.3-1.3,2.6-2.6,1.2-1.2,2.6-3.9-2.6,2.6a43.2,43.2,0,0,0-7.7,10.3v-1.3l-2.6,3.9Zm6.4-9-1.2,1.3C774.8,541,774.8,539.7,774.8,539.7Zm2.6-2.6,47.8-50.4C808.4,502.2,792.9,519,777.4,537.1Z" transform="translate(0 -134.5)" fill="#df4949"/></g></g></svg>