<?xml version="1.0" encoding="utf-8"?>
<!-- Generator: Adobe Illustrator 23.0.1, SVG Export Plug-In . SVG Version: 6.00 Build 0)  -->
<svg version="1.1" id="Layer_1" xmlns="http://www.w3.org/2000/svg" xmlns:xlink="http://www.w3.org/1999/xlink" x="0px" y="0px"
	 viewBox="0 0 765.3 269" style="enable-background:new 0 0 765.3 269;" xml:space="preserve">
<style type="text/css">
	.st0{fill:#333333;}
	.st1{font-family:'ChaparralPro-Bold';}
	.st2{font-size:180.4781px;}
	.st3{letter-spacing:-3;}
	.st4{letter-spacing:-7;}
</style>
<title>iconAsset 4</title>
<g>
	<path class="st0" d="M250.2,75.7c6.5-13.3,16-6.1,17.1,1c0.7,4.7-2.3,9.5-12.3,8.3l-34,48.3l29.9,50.1
		c34.4-30.4,49-69.5,31.6-103.5c-14.2-27.7-58.9-43.4-110.4-36.6L191,75.7H250.2z"/>
	<path class="st0" d="M133.7,52.3c-5.7,2-11.4,4.2-17.1,6.7c-10.9,4.9-21.1,10.5-30.5,16.7h34.1L133.7,52.3z"/>
	<path class="st0" d="M173.5,225.2c7.5-2.3,15.1-5.1,22.9-8.3c14.5-6,27.7-13.3,39.3-21.5l-44.8,0L173.5,225.2z"/>
	<path class="st0" d="M141.9,232.5l-21.6-37.2l-58.3,0c-6.3,13.6-16,6.4-17.1-0.8c-0.7-4.7,2.2-9.4,12.2-8.3l33.2-53L62.8,94
		c-34.5,31.9-48.8,71.6-31,101.6C49.2,225,89.9,240.4,141.9,232.5z"/>
	<path class="st0" d="M170.4,40.4l-9.6-17c7.1-10.3,1-15.3-5.2-15.3c-6.3,0-12.7,5.2-5.3,15.3l-16.6,28.9c13-4.4,25.8-7.4,38.3-9.1
		L170.4,40.4z"/>
	<path class="st0" d="M79.9,75.7L79.9,75.7l-18.9,0c-7.2-12.8-15.9-5.7-16.9,1.3c-0.7,5,2.4,10,12.5,8l6.2,8.9
		c7-6.5,14.8-12.6,23.4-18.3H79.9z"/>
	<path class="st0" d="M247.4,195.4c6.1,13.8,16,6.6,17.1-0.7c0.7-4.6-2.1-9.2-11.9-8.4l-1.7-2.9c-4.7,4.2-9.7,8.1-15.1,11.9
		L247.4,195.4z"/>
	<path class="st0" d="M150.3,246.9c-14.3,20.4,25,20.2,10.5,0l12.7-21.8c-10.9,3.4-21.5,5.8-31.7,7.4L150.3,246.9z"/>
	<path class="st0" d="M158,57.1c-4.9,17.5-11.8,23.8-20.6,19.4c0,0,17.9,24.9,10.7,42.1c-2.7,6.4-22.5-6.7-26.5-29.1
		c0-0.1,0.1-0.1,0,0c-8.1,8.6-18.5,7.9-26.7,0.5c5.5,9.1,5.4,23.9-2.7,30.2c15,3.2,30,34.8,6.5,58.2c19.2-11.8,53.3-13.6,55.7-1
		c2.7,13.7,2.8,29.2,0.8,41.2c5.8-1.8,6.8-2.6,6.8-2.6c-0.8-9.1-2.5-30.4-1-38.8c2.6-13.9,33.3-11.7,54.1,1.3
		c-21.2-32.8-10.8-54.2,8.1-58.2c-7.5-6.5-8-19.2-2.3-30.4c-5.7,3.6-17.9,5.9-24.7-0.4c-5.2,23.9-27,35.1-29.3,29.3
		c-4.8-11.9,7.4-38,11.7-42.3C166.4,83,161.4,70.6,158,57.1"/>
</g>
<text transform="matrix(1 0 0 1 357.4205 201.2099)"><tspan x="0" y="0" class="st0 st1 st2 st3">M</tspan><tspan x="154.3" y="0" class="st0 st1 st2 st4">D</tspan><tspan x="275.4" y="0" class="st0 st1 st2">C</tspan></text>
</svg>
