<?xml version="1.0" encoding="utf-8"?>
<!-- Generator: Adobe Illustrator 23.0.1, SVG Export Plug-In . SVG Version: 6.00 Build 0)  -->
<svg version="1.1" id="Layer_1" xmlns="http://www.w3.org/2000/svg" xmlns:xlink="http://www.w3.org/1999/xlink" x="0px" y="0px"
	 viewBox="0 0 1027.3 136.3" style="enable-background:new 0 0 1027.3 136.3;" xml:space="preserve">
<style type="text/css">
	.st0{fill:#333333;}
</style>
<title>iconAsset 4</title>
<g>
	<g id="Layer_1-2">
		<rect x="318.7" y="3.3" class="st0" width="7.6" height="132.9"/>
		<path class="st0" d="M55.5,69.6H37.6l40.8,66.6h21L67.5,89.7c5.8-5.1,11-10.9,15.3-17.3L62.5,68C60.3,69.1,57.9,69.6,55.5,69.6"/>
		<path class="st0" d="M72.5,6.3C67,2.2,60.4,0,53.5,0H0v51.6l15.3,3.3V20.4h36.9c11.1,0,21,7.7,22.7,18.6c0.9,5.8-0.3,12.9-6,20.8
			c-1.6,2.3-3.8,4-6.3,5.2l20.2,4.3C93.6,53.3,101.5,28.5,72.5,6.3"/>
		<polygon class="st0" points="111.6,136.2 130,136.2 130,82.5 111.6,78.6 		"/>
		<polygon class="st0" points="111.6,0 111.6,75.6 130,79.5 130,0 		"/>
		<path class="st0" d="M155.2,66.6c0-27.9,22.5-50.5,50.4-50.6c27.9,0,50.5,22.5,50.6,50.4c0,14-5.7,27.3-15.9,36.9l18.2,3.9
			c22.4-29.2,17-71-12.2-93.4s-71-17-93.4,12.2c-8.9,11.6-13.8,25.9-13.8,40.6c0,5.1,0.6,10.2,1.7,15.2l18.2,3.9
			C156.5,79.7,155.2,73.2,155.2,66.6"/>
		<path class="st0" d="M240.3,106.3c-20.2,19.1-52.1,18.3-71.3-1.9c-4.3-4.5-7.7-9.8-10-15.6l-18.2-3.9c8.4,35.8,44.2,58,80.1,49.6
			c15-3.5,28.3-12.1,37.6-24.3L240.3,106.3z"/>
		<path class="st0" d="M394.9,108.7V29.2h11.4v79.5H394.9z"/>
		<path class="st0" d="M416.7,108.7V52.1h11.4v5.4h0.2c1.2-1.7,2.6-3.2,4.3-4.4c1.9-1.2,4.1-1.8,6.4-1.7c1.5,0,2.9,0.2,4.3,0.7
			c1.4,0.5,2.7,1.3,3.8,2.4c1.2,1.2,2.1,2.7,2.7,4.3c0.7,2.1,1,4.2,1,6.4v43.5h-11.4V69.5c0.1-1.8-0.4-3.5-1.5-4.9
			c-1-1.2-2.5-1.9-4.1-1.8c-2.2,0-3.7,0.7-4.5,2c-0.9,1.8-1.3,3.8-1.2,5.8v38.1L416.7,108.7z"/>
		<path class="st0" d="M480.8,67.9c0.1-1.6-0.6-3.2-1.8-4.3c-1.1-1-2.5-1.5-4-1.5c-1.6-0.1-3.1,0.6-4.1,1.8c-1,1.1-1.5,2.5-1.5,3.9
			c0,1.1,0.3,2.1,0.8,3.1c0.5,1,1.9,1.9,4,2.7l6.7,2.7c4.3,1.6,7.2,3.9,8.8,6.7c1.6,2.8,2.4,6,2.4,9.3c0,2.3-0.4,4.5-1.3,6.6
			c-0.8,2-2,3.9-3.5,5.4c-1.5,1.6-3.4,2.9-5.4,3.7c-6.2,2.6-13.4,1.5-18.4-3c-1.6-1.5-2.9-3.3-3.8-5.3c-1-2.3-1.6-4.9-1.6-7.4h10.8
			c0.2,1.5,0.7,3,1.6,4.3c0.8,1.4,2.4,2,4.5,2c1.6,0,3.2-0.5,4.4-1.6c1.3-1.1,2.1-2.8,2-4.5c0.1-1.4-0.4-2.8-1.2-4
			c-1.2-1.3-2.8-2.3-4.5-2.9l-5.5-2c-3.3-1.2-6.2-3.3-8.4-6c-2.1-2.8-3.2-6.2-3.1-9.7c0-2.3,0.4-4.5,1.3-6.6c0.9-2,2.1-3.8,3.7-5.3
			c1.5-1.5,3.3-2.6,5.3-3.4c2.1-0.8,4.3-1.2,6.5-1.2c2.2,0,4.4,0.4,6.4,1.2c1.9,0.8,3.7,2,5.1,3.5c1.4,1.5,2.6,3.3,3.3,5.3
			c0.8,2.1,1.2,4.3,1.2,6.5L480.8,67.9z"/>
		<path class="st0" d="M533.5,52.1v56.6h-11.3v-5.5h-0.3c-1.1,1.7-2.6,3.2-4.3,4.4c-1.9,1.3-4.1,1.9-6.4,1.8c-1.4,0-2.9-0.3-4.2-0.8
			c-1.5-0.4-2.8-1.2-3.8-2.4c-1.2-1.2-2.2-2.7-2.7-4.3c-0.7-2-1.1-4.2-1-6.4V52.1h11.4v39.2c-0.1,1.7,0.4,3.5,1.4,4.9
			c1,1.2,2.6,1.9,4.2,1.8c2.1,0,3.6-0.7,4.4-2c0.9-1.8,1.4-3.8,1.3-5.8V52.1H533.5z"/>
		<path class="st0" d="M542.9,108.7V52.1h11.4v6c2.1-1.9,4.3-3.5,6.8-4.9c2.6-1.3,5.4-1.9,8.3-1.8v12.1c-1.1-0.5-2.3-0.7-3.5-0.7
			c-1.3,0-2.6,0.2-3.8,0.6c-1.4,0.4-2.7,1.1-3.8,2.1c-1.2,1.1-2.2,2.3-2.9,3.8c-0.8,1.8-1.2,3.8-1.1,5.8v33.6L542.9,108.7z"/>
		<path class="st0" d="M594.9,108.7v-5.8h-0.2c-1.2,1.9-2.8,3.5-4.6,4.8c-1.9,1.2-4.1,1.8-6.4,1.7c-1.4,0-2.8-0.2-4.1-0.6
			c-1.4-0.5-2.8-1.3-3.9-2.3c-1.4-1.3-2.5-2.8-3.1-4.6c-0.9-2.4-1.3-5-1.2-7.6c0-2.8,0.2-5.6,0.8-8.4c0.4-2.3,1.4-4.4,2.9-6.1
			c1.4-1.7,3.4-2.9,5.5-3.5c2.8-0.9,5.8-1.3,8.8-1.2h5.5v-5.6c0.1-1.7-0.4-3.4-1.3-4.8c-0.8-1.3-2.3-1.9-4.4-1.9
			c-1.5,0-2.9,0.5-4.1,1.4c-1.3,1.1-2.1,2.6-2.4,4.3h-11.1c0.1-4.6,2-9,5.2-12.3c1.5-1.5,3.3-2.7,5.3-3.5c2.3-0.9,4.7-1.4,7.1-1.3
			c2.3,0,4.5,0.4,6.7,1.1c2,0.8,3.9,1.9,5.5,3.4c1.5,1.6,2.7,3.5,3.5,5.6c1,2.5,1.4,5.1,1.4,7.8v39.4L594.9,108.7z M594.9,84.3
			l-3.1-0.3c-2.3,0-4.5,0.5-6.4,1.7c-1.7,1.2-2.6,3.3-2.6,6.4c-0.1,1.9,0.5,3.7,1.6,5.2c1,1.3,2.6,2.1,4.3,2
			c1.7,0.1,3.4-0.6,4.6-1.9c1.1-1.5,1.7-3.4,1.6-5.3L594.9,84.3z"/>
		<path class="st0" d="M614.6,108.7V52.1H626v5.4h0.3c1.2-1.7,2.6-3.2,4.3-4.4c1.9-1.2,4.1-1.8,6.4-1.7c1.4,0,2.9,0.2,4.2,0.7
			c1.4,0.5,2.7,1.3,3.8,2.4c1.2,1.2,2.1,2.7,2.7,4.3c0.7,2.1,1.1,4.2,1,6.4v43.5h-11.4V69.5c0.1-1.7-0.4-3.5-1.4-4.9
			c-1-1.2-2.6-1.9-4.2-1.8c-2.1,0-3.6,0.7-4.4,2c-0.9,1.8-1.4,3.8-1.3,5.8v38.1L614.6,108.7z"/>
		<path class="st0" d="M670.2,92.4c-0.1,1.5,0.4,3,1.5,4.1c1.1,1.1,2.6,1.6,4.1,1.5c2.1,0,3.5-0.7,4.3-1.9c0.7-1.2,1.1-2.5,1.2-3.8
			h11.4c0,5-1.5,9-4.5,12c-1.5,1.6-3.4,2.9-5.4,3.7c-2.2,0.9-4.6,1.4-7,1.4c-3.2,0.1-6.4-0.7-9.2-2.3c-2.4-1.4-4.4-3.5-5.7-5.9
			c-0.8-1.6-1.4-3.3-1.7-5.1c-0.3-2.1-0.4-4.3-0.4-6.4V71.1c0-2.1,0.1-4.3,0.4-6.4c0.3-1.8,0.8-3.5,1.7-5.1c1.3-2.5,3.3-4.5,5.7-6
			c2.8-1.6,6-2.3,9.2-2.2c2.4-0.1,4.8,0.4,7,1.3c2.1,0.9,3.9,2.1,5.5,3.7c2.9,3.4,4.4,7.7,4.4,13.1h-11.4c0-2.3-0.5-4-1.5-5.1
			c-1-1.1-2.5-1.7-4-1.6c-1.5-0.1-3,0.5-4.1,1.6c-1.1,1.4-1.6,3.1-1.5,4.9V92.4z"/>
		<path class="st0" d="M732.4,84.7h-22.6v7.7c-0.1,1.5,0.4,3,1.5,4.1c1.1,1,2.6,1.6,4.1,1.5c2.2,0,3.6-0.7,4.3-1.9
			c0.6-1.2,1.1-2.5,1.3-3.8h11.4c0,5-1.5,9-4.6,12c-1.5,1.6-3.4,2.9-5.4,3.7c-5.2,2.1-11.1,1.8-16.1-0.9c-2.4-1.4-4.4-3.4-5.8-5.9
			c-0.8-1.6-1.4-3.3-1.6-5.1c-0.3-2.1-0.5-4.3-0.5-6.4V71.1c0-2.1,0.2-4.3,0.5-6.4c0.2-1.8,0.8-3.5,1.6-5.1c1.4-2.5,3.4-4.6,5.8-6
			c2.8-1.6,5.9-2.3,9.1-2.2c2.4-0.1,4.8,0.4,7.1,1.3c2,0.9,3.9,2.1,5.4,3.7c3,3.5,4.6,8,4.5,12.6V84.7z M709.8,75.7H721v-6.4
			c0.1-1.8-0.4-3.5-1.5-4.9c-2.3-2.1-5.9-2.1-8.2,0c-1.1,1.4-1.6,3.1-1.5,4.9L709.8,75.7z"/>
		<path class="st0" d="M762.2,108.7V29.2h16.7c3.2-0.1,6.3,0.5,9.3,1.6c2.4,1,4.5,2.6,6.3,4.5c1.6,1.9,2.8,4,3.5,6.4
			c0.7,2.5,1.1,5,1.1,7.6v2.9c0,1.8-0.2,3.7-0.5,5.5c-0.4,1.3-0.9,2.6-1.5,3.9c-1.5,2.2-3.5,4-5.8,5.3c2.5,1.2,4.6,3.2,5.9,5.6
			c1.4,3.2,2,6.6,1.9,10.1V87c0,7-1.7,12.4-5.1,16.1s-8.8,5.6-16.3,5.6H762.2z M773.6,39.9v21.9h5.1c3.8,0,6.4-1,7.7-2.9
			s2-4.6,2-8.3s-0.8-6.2-2.2-8s-4.1-2.7-7.9-2.7L773.6,39.9z M773.6,71.8v25.5h4.9c1.9,0.1,3.7-0.2,5.4-1c1.2-0.6,2.3-1.6,3-2.8
			c0.7-1.3,1.1-2.7,1.2-4.2c0.2-1.8,0.3-3.6,0.3-5.4c0-1.7-0.1-3.5-0.4-5.2c-0.2-1.3-0.6-2.6-1.3-3.8c-0.7-1.1-1.8-1.9-3-2.3
			c-1.6-0.6-3.4-0.8-5.1-0.8H773.6z"/>
		<path class="st0" d="M809.1,108.7V52.1h11.4v6c2.1-1.9,4.3-3.5,6.8-4.9c2.6-1.3,5.4-1.9,8.3-1.8v12.1c-1.1-0.5-2.3-0.7-3.5-0.7
			c-1.3,0-2.6,0.2-3.8,0.6c-1.4,0.4-2.7,1.1-3.8,2.1c-1.2,1.1-2.2,2.3-2.9,3.8c-0.8,1.8-1.2,3.8-1.1,5.8v33.6L809.1,108.7z"/>
		<path class="st0" d="M838.5,71.1c0-2.1,0.2-4.3,0.5-6.4c0.2-1.8,0.7-3.5,1.6-5.1c1.4-2.5,3.4-4.6,5.8-6c5.7-2.9,12.5-2.9,18.2,0
			c2.4,1.4,4.4,3.5,5.7,6c0.9,1.6,1.5,3.3,1.7,5.1c0.3,2.1,0.5,4.3,0.5,6.4v18.6c0,2.1-0.2,4.3-0.5,6.4c-0.2,1.8-0.8,3.5-1.7,5.1
			c-1.3,2.5-3.3,4.5-5.7,5.9c-5.7,3.1-12.5,3.1-18.2,0c-2.4-1.4-4.4-3.4-5.8-5.9c-0.9-1.6-1.4-3.3-1.6-5.1c-0.3-2.1-0.5-4.3-0.5-6.4
			V71.1z M849.9,91.5c-0.1,1.8,0.4,3.5,1.5,4.9c2.3,2.1,5.9,2.1,8.2,0c1.1-1.4,1.6-3.1,1.5-4.9V69.3c0.1-1.8-0.4-3.5-1.5-4.9
			c-2.3-2.1-5.9-2.1-8.2,0c-1.1,1.4-1.6,3.1-1.5,4.9V91.5z"/>
		<path class="st0" d="M880.8,108.7V29.2h11.4v47.6h0.3l13.7-24.7h11.4l-13.5,23l16.3,33.6H908l-10.3-24.5l-5.5,8.6v15.9H880.8z"/>
		<path class="st0" d="M955.9,84.7h-22.6v7.7c-0.1,1.5,0.4,3,1.5,4.1c1.1,1,2.6,1.6,4.1,1.5c2.2,0,3.6-0.7,4.3-1.9
			c0.7-1.2,1.1-2.5,1.3-3.8h11.4c0,5-1.5,9-4.6,12c-1.5,1.6-3.3,2.8-5.3,3.7c-2.2,0.9-4.7,1.4-7.1,1.4c-3.2,0.1-6.3-0.7-9.1-2.3
			c-2.4-1.4-4.4-3.4-5.7-5.9c-0.8-1.6-1.4-3.3-1.7-5.1c-0.3-2.1-0.5-4.3-0.5-6.4V71.1c0-2.1,0.2-4.3,0.5-6.4
			c0.3-1.8,0.8-3.5,1.7-5.1c1.3-2.5,3.3-4.6,5.7-6c2.8-1.5,5.9-2.3,9.1-2.2c2.4-0.1,4.8,0.4,7.1,1.3c2,0.9,3.9,2.1,5.4,3.7
			c3,3.5,4.6,8,4.5,12.6V84.7z M933.3,75.7h11.2v-6.4c0.1-1.8-0.4-3.5-1.5-4.9c-1.1-1.1-2.6-1.7-4.1-1.6c-1.5-0.1-3,0.5-4.1,1.6
			c-1.1,1.4-1.6,3.1-1.5,4.9L933.3,75.7z"/>
		<path class="st0" d="M964.3,108.7V52.1h11.4v6c2.1-1.9,4.3-3.5,6.8-4.9c2.6-1.3,5.4-1.9,8.3-1.8v12.1c-1.1-0.5-2.3-0.7-3.5-0.7
			c-1.3,0-2.6,0.2-3.9,0.6c-1.4,0.4-2.6,1.1-3.7,2.1c-1.3,1-2.3,2.3-2.9,3.8c-0.8,1.8-1.2,3.8-1.1,5.8v33.6L964.3,108.7z"/>
		<path class="st0" d="M1016,67.9c0-1.6-0.6-3.2-1.8-4.3c-1.1-1-2.5-1.5-4-1.5c-1.6-0.1-3.1,0.6-4.1,1.8c-1,1.1-1.5,2.5-1.5,3.9
			c0,1.1,0.3,2.1,0.8,3.1c0.5,1,1.9,1.9,4,2.7l6.7,2.7c4.3,1.6,7.2,3.9,8.8,6.7c1.6,2.8,2.4,6,2.4,9.3c0,2.3-0.4,4.5-1.3,6.6
			c-0.8,2-2,3.8-3.5,5.4c-1.5,1.6-3.4,2.9-5.4,3.7c-2.1,0.9-4.5,1.4-6.8,1.4c-4.3,0.1-8.5-1.5-11.6-4.4c-1.6-1.5-2.9-3.3-3.8-5.3
			c-1-2.3-1.6-4.9-1.6-7.4h10.8c0.2,1.5,0.7,3,1.6,4.3c0.8,1.4,2.3,2,4.5,2c1.6,0,3.2-0.5,4.4-1.6c1.3-1.1,2.1-2.8,2-4.5
			c0.1-1.4-0.4-2.9-1.3-4c-1.2-1.4-2.7-2.4-4.4-2.9l-5.5-2c-3.3-1.2-6.2-3.3-8.4-6c-2.1-2.8-3.2-6.2-3.1-9.7c0-2.3,0.4-4.5,1.3-6.6
			c0.8-2,2.1-3.8,3.7-5.3c1.5-1.5,3.3-2.6,5.3-3.4c2-0.8,4.2-1.2,6.4-1.2c2.2,0,4.4,0.4,6.5,1.2c3.8,1.7,6.9,4.9,8.4,8.8
			c0.8,2.1,1.2,4.3,1.2,6.5L1016,67.9z"/>
	</g>
</g>
</svg>
