<svg xmlns="http://www.w3.org/2000/svg" width="1027.3" height="133.3" viewBox="0 0 1027.3 133.3"><title>iconAsset 3</title><g id="Layer_2" data-name="Layer 2"><g id="Layer_1-2" data-name="Layer 1"><rect x="318.7" y="0.3" width="7.6" height="132.9" fill="#fff"/><path d="M55.5,66.6H37.6l40.8,66.6h21L67.5,86.7A87.2,87.2,0,0,0,82.8,69.4L62.5,65a15,15,0,0,1-7,1.6" fill="#fff"/><path d="M72.5,6.3A31.4,31.4,0,0,0,53.5,0H0V51.6l15.3,3.3V20.4H52.2c11.1,0,21,7.7,22.7,18.6.9,5.8-.3,12.9-6,20.8A15.8,15.8,0,0,1,62.6,65l20.2,4.3c10.8-16,18.7-40.8-10.3-63" fill="#fff"/><polygon points="111.6 133.2 130 133.2 130 79.5 111.6 75.6 111.6 133.2" fill="#fff"/><polygon points="111.6 0 111.6 75.6 130 79.5 130 0 111.6 0" fill="#fff"/><path d="M155.2,66.6a50.5,50.5,0,1,1,85.1,36.7l18.2,3.9A66.6,66.6,0,1,0,139.1,66.6a69.4,69.4,0,0,0,1.7,15.2L159,85.7a48.6,48.6,0,0,1-3.8-19.1" fill="#fff"/><path d="M240.3,103.3A50.4,50.4,0,0,1,159,85.8l-18.2-3.9a66.6,66.6,0,0,0,117.7,25.3Z" fill="#fff"/><path d="M394.9,105.7V26.2h11.4v79.5Z" fill="#fff"/><path d="M416.7,105.7V49.1h11.4v5.4h.2a18,18,0,0,1,4.3-4.4,11.5,11.5,0,0,1,6.4-1.7,12.5,12.5,0,0,1,4.3.7,10.2,10.2,0,0,1,3.8,2.4,13.2,13.2,0,0,1,2.7,4.3,20,20,0,0,1,1,6.4v43.5H439.4V66.5a7.4,7.4,0,0,0-1.5-4.9,4.8,4.8,0,0,0-4.1-1.8c-2.2,0-3.7.7-4.5,2a11.4,11.4,0,0,0-1.2,5.8v38.1Z" fill="#fff"/><path d="M480.8,64.9a5.4,5.4,0,0,0-1.8-4.3,6,6,0,0,0-4-1.5,5.1,5.1,0,0,0-4.1,1.7,6,6,0,0,0-1.5,4,6.8,6.8,0,0,0,.8,3.1c.5,1,1.9,1.9,4,2.7l6.7,2.7c4.3,1.6,7.2,3.9,8.8,6.7a18.4,18.4,0,0,1,2.4,9.3,15.9,15.9,0,0,1-1.3,6.6,15.3,15.3,0,0,1-3.5,5.4,15.8,15.8,0,0,1-5.4,3.7,17.4,17.4,0,0,1-18.4-3,16,16,0,0,1-3.8-5.3,18.7,18.7,0,0,1-1.6-7.4h10.8a9.8,9.8,0,0,0,1.6,4.3c.8,1.4,2.4,2,4.5,2a6.5,6.5,0,0,0,4.4-1.6,5.6,5.6,0,0,0,2-4.5,6.5,6.5,0,0,0-1.2-4,10.6,10.6,0,0,0-4.5-2.9l-5.5-2a19,19,0,0,1-8.4-6,15.2,15.2,0,0,1-3.1-9.7,17.6,17.6,0,0,1,1.3-6.6,16.8,16.8,0,0,1,3.7-5.3,14.2,14.2,0,0,1,5.3-3.4,17.5,17.5,0,0,1,6.5-1.2,16.9,16.9,0,0,1,6.4,1.2,14.1,14.1,0,0,1,5.1,3.5,15.9,15.9,0,0,1,3.3,5.3,17.5,17.5,0,0,1,1.2,6.5Z" fill="#fff"/><path d="M533.5,49.1v56.6H522.2v-5.5h-.3a15.1,15.1,0,0,1-4.3,4.4,10.5,10.5,0,0,1-6.4,1.8,12.5,12.5,0,0,1-4.2-.8,7.7,7.7,0,0,1-3.8-2.4,10.9,10.9,0,0,1-2.7-4.3,16.9,16.9,0,0,1-1-6.4V49.1h11.4V88.3a7.9,7.9,0,0,0,1.4,4.9,5.2,5.2,0,0,0,4.2,1.8c2.1,0,3.6-.7,4.4-2a11.6,11.6,0,0,0,1.3-5.8V49.1Z" fill="#fff"/><path d="M542.9,105.7V49.1h11.4v6a34.9,34.9,0,0,1,6.8-4.9,17.6,17.6,0,0,1,8.3-1.8V60.5a8.4,8.4,0,0,0-3.5-.7,14.2,14.2,0,0,0-3.8.6,10.2,10.2,0,0,0-3.8,2.1,11.6,11.6,0,0,0-2.9,3.8,13.9,13.9,0,0,0-1.1,5.8v33.6Z" fill="#fff"/><path d="M594.9,105.7V99.9h-.2a19.3,19.3,0,0,1-4.6,4.8,10.6,10.6,0,0,1-6.4,1.7,15.1,15.1,0,0,1-4.1-.6,12.1,12.1,0,0,1-3.9-2.3,11.3,11.3,0,0,1-3.1-4.6,20.2,20.2,0,0,1-1.2-7.6,41.3,41.3,0,0,1,.8-8.4,12.9,12.9,0,0,1,2.9-6.1,12,12,0,0,1,5.5-3.6,30.5,30.5,0,0,1,8.8-1.1h5.5V66.5a8.2,8.2,0,0,0-1.3-4.8c-.8-1.3-2.3-1.9-4.4-1.9a6.8,6.8,0,0,0-4.1,1.4,7.3,7.3,0,0,0-2.4,4.3H571.6a18.3,18.3,0,0,1,5.2-12.3,15.8,15.8,0,0,1,5.3-3.5,18,18,0,0,1,7.1-1.3,20.9,20.9,0,0,1,6.7,1.1,16.4,16.4,0,0,1,5.5,3.4,17.9,17.9,0,0,1,3.5,5.5,21.4,21.4,0,0,1,1.4,7.9v39.4Zm0-24.4-3.1-.3a12,12,0,0,0-6.4,1.7c-1.7,1.2-2.6,3.3-2.6,6.4a7.9,7.9,0,0,0,1.6,5.2,5.2,5.2,0,0,0,4.3,2,5.6,5.6,0,0,0,4.6-1.9,8.2,8.2,0,0,0,1.6-5.3Z" fill="#fff"/><path d="M614.6,105.7V49.1H626v5.4h.3a18,18,0,0,1,4.3-4.4,11.3,11.3,0,0,1,6.4-1.7,12.3,12.3,0,0,1,4.2.7,10.2,10.2,0,0,1,3.8,2.4,13.2,13.2,0,0,1,2.7,4.3,17.6,17.6,0,0,1,1,6.4v43.5H637.3V66.5a7.9,7.9,0,0,0-1.4-4.9,5.2,5.2,0,0,0-4.2-1.8c-2.1,0-3.6.7-4.4,2a11.3,11.3,0,0,0-1.3,5.8v38.1Z" fill="#fff"/><path d="M670.2,89.4a5.3,5.3,0,0,0,1.5,4.1,5.4,5.4,0,0,0,4.1,1.5c2.1,0,3.5-.7,4.3-1.9a9.8,9.8,0,0,0,1.2-3.8h11.4q0,7.5-4.5,12a15.8,15.8,0,0,1-5.4,3.7,17.5,17.5,0,0,1-7,1.4,17.7,17.7,0,0,1-9.2-2.3,15.4,15.4,0,0,1-5.7-5.9,16.1,16.1,0,0,1-1.7-5.1,43.1,43.1,0,0,1-.4-6.4V68.1a41.4,41.4,0,0,1,.4-6.4,16.7,16.7,0,0,1,1.7-5.2,16.1,16.1,0,0,1,5.7-5.9,17.7,17.7,0,0,1,9.2-2.2,17.5,17.5,0,0,1,7,1.3,16.6,16.6,0,0,1,5.5,3.7c2.9,3.4,4.4,7.7,4.4,13.1H681.3q0-3.4-1.5-5.1a5.1,5.1,0,0,0-4-1.6,5.1,5.1,0,0,0-4.1,1.6,7,7,0,0,0-1.5,4.9Z" fill="#fff"/><path d="M732.4,81.7H709.8v7.7a5.3,5.3,0,0,0,1.5,4.1,5.6,5.6,0,0,0,4.1,1.5c2.2,0,3.6-.7,4.3-1.9a12.3,12.3,0,0,0,1.3-3.8h11.4c0,5-1.5,9-4.6,12a15.8,15.8,0,0,1-5.4,3.7,18.7,18.7,0,0,1-16.1-.9,15.6,15.6,0,0,1-5.8-5.9,16.1,16.1,0,0,1-1.6-5.1,42.6,42.6,0,0,1-.5-6.4V68.1a40.6,40.6,0,0,1,.5-6.4,16.7,16.7,0,0,1,1.6-5.2,16.4,16.4,0,0,1,5.8-5.9,17.3,17.3,0,0,1,9.1-2.2,18,18,0,0,1,7.1,1.3,17.3,17.3,0,0,1,5.4,3.7A18.4,18.4,0,0,1,732.4,66Zm-22.6-9H721V66.3a7,7,0,0,0-1.5-4.9,6.1,6.1,0,0,0-8.2,0,7,7,0,0,0-1.5,4.9Z" fill="#fff"/><path d="M762.2,105.7V26.2h16.7a23.8,23.8,0,0,1,9.3,1.6A16.8,16.8,0,0,1,798,38.7a27.9,27.9,0,0,1,1.1,7.6v2.9a26.8,26.8,0,0,1-.5,5.4,20.8,20.8,0,0,1-1.5,4,16.7,16.7,0,0,1-5.8,5.3,12.8,12.8,0,0,1,5.9,5.6,23.3,23.3,0,0,1,1.9,10.1V84c0,7-1.7,12.4-5.1,16.1s-8.8,5.6-16.3,5.6Zm11.4-68.8V58.8h5.1c3.8,0,6.4-1,7.7-2.9s2-4.6,2-8.3-.8-6.2-2.2-8-4.1-2.7-7.9-2.7Zm0,31.9V94.3h4.9a11.6,11.6,0,0,0,5.4-1,7.4,7.4,0,0,0,3-2.8,9.4,9.4,0,0,0,1.2-4.2,46.3,46.3,0,0,0,.3-5.4,39.6,39.6,0,0,0-.4-5.3,10.1,10.1,0,0,0-1.3-3.7,6.1,6.1,0,0,0-3-2.3,14.3,14.3,0,0,0-5.1-.8Z" fill="#fff"/><path d="M809.1,105.7V49.1h11.4v6a34.9,34.9,0,0,1,6.8-4.9,17.6,17.6,0,0,1,8.3-1.8V60.5a8.4,8.4,0,0,0-3.5-.7,13.6,13.6,0,0,0-3.8.6,10.2,10.2,0,0,0-3.8,2.1,11.6,11.6,0,0,0-2.9,3.8,13.9,13.9,0,0,0-1.1,5.8v33.6Z" fill="#fff"/><path d="M838.5,68.1a40.6,40.6,0,0,1,.5-6.4,14.4,14.4,0,0,1,1.6-5.2,16.4,16.4,0,0,1,5.8-5.9,19.9,19.9,0,0,1,18.2,0,15.3,15.3,0,0,1,5.7,5.9,14.5,14.5,0,0,1,1.7,5.2,40.6,40.6,0,0,1,.5,6.4V86.7a42.6,42.6,0,0,1-.5,6.4,14,14,0,0,1-1.7,5.1,14.7,14.7,0,0,1-5.7,5.9,19.2,19.2,0,0,1-18.2,0,15.6,15.6,0,0,1-5.8-5.9,13.9,13.9,0,0,1-1.6-5.1,42.6,42.6,0,0,1-.5-6.4Zm11.4,20.4a7,7,0,0,0,1.5,4.9,6.1,6.1,0,0,0,8.2,0,7,7,0,0,0,1.5-4.9V66.3a7,7,0,0,0-1.5-4.9,6.1,6.1,0,0,0-8.2,0,7,7,0,0,0-1.5,4.9Z" fill="#fff"/><path d="M880.8,105.7V26.2h11.4V73.8h.3l13.7-24.7h11.4l-13.5,23,16.3,33.6H908L897.7,81.2l-5.5,8.6v15.9Z" fill="#fff"/><path d="M955.9,81.7H933.3v7.7a5.3,5.3,0,0,0,1.5,4.1,5.8,5.8,0,0,0,4.1,1.5c2.2,0,3.6-.7,4.3-1.9a10.1,10.1,0,0,0,1.3-3.8h11.4c0,5-1.5,9-4.6,12A16.4,16.4,0,0,1,946,105a18,18,0,0,1-7.1,1.4,17.6,17.6,0,0,1-9.1-2.3,14.7,14.7,0,0,1-5.7-5.9,16.1,16.1,0,0,1-1.7-5.1,42.6,42.6,0,0,1-.5-6.4V68.1a40.6,40.6,0,0,1,.5-6.4,16.7,16.7,0,0,1,1.7-5.2,15.3,15.3,0,0,1,5.7-5.9,17.5,17.5,0,0,1,9.1-2.2,18,18,0,0,1,7.1,1.3,17.3,17.3,0,0,1,5.4,3.7A18.4,18.4,0,0,1,955.9,66Zm-22.6-9h11.2V66.3a7,7,0,0,0-1.5-4.9,5.3,5.3,0,0,0-4.1-1.6,5.4,5.4,0,0,0-4.1,1.6,7,7,0,0,0-1.5,4.9Z" fill="#fff"/><path d="M964.3,105.7V49.1h11.4v6a34.9,34.9,0,0,1,6.8-4.9,17.3,17.3,0,0,1,8.3-1.8V60.5a8.7,8.7,0,0,0-3.5-.7,14.3,14.3,0,0,0-3.9.6,9.8,9.8,0,0,0-3.7,2.1,9.4,9.4,0,0,0-2.9,3.8,13.9,13.9,0,0,0-1.1,5.8v33.6Z" fill="#fff"/><path d="M1016,64.9a5.7,5.7,0,0,0-1.8-4.3,6,6,0,0,0-4-1.5,5.1,5.1,0,0,0-4.1,1.7,6,6,0,0,0-1.5,4,6.8,6.8,0,0,0,.8,3.1c.5,1,1.9,1.9,4,2.7l6.7,2.7c4.3,1.6,7.2,3.9,8.8,6.7a18.4,18.4,0,0,1,2.4,9.3,15.9,15.9,0,0,1-1.3,6.6,16.8,16.8,0,0,1-3.5,5.4,15.8,15.8,0,0,1-5.4,3.7,16.9,16.9,0,0,1-6.8,1.4,16.4,16.4,0,0,1-11.6-4.4,16,16,0,0,1-3.8-5.3,18.7,18.7,0,0,1-1.6-7.4h10.8a9.8,9.8,0,0,0,1.6,4.3c.8,1.4,2.3,2,4.5,2a6.6,6.6,0,0,0,4.4-1.6,5.6,5.6,0,0,0,2-4.5,6,6,0,0,0-1.3-4,9.6,9.6,0,0,0-4.4-2.9l-5.5-2a19,19,0,0,1-8.4-6,15.2,15.2,0,0,1-3.1-9.7,15.9,15.9,0,0,1,1.3-6.6,15.4,15.4,0,0,1,3.7-5.3,14.2,14.2,0,0,1,5.3-3.4,16.9,16.9,0,0,1,6.4-1.2,17.5,17.5,0,0,1,6.5,1.2,16,16,0,0,1,8.4,8.8,17.5,17.5,0,0,1,1.2,6.5Z" fill="#fff"/></g></g></svg>